<?xml version="1.0" encoding="UTF-8" standalone="no"?>
<!-- Generator: Adobe Illustrator 16.0.3, SVG Export Plug-In . SVG Version: 6.00 Build 0)  -->

<svg
   xmlns:dc="http://purl.org/dc/elements/1.1/"
   xmlns:cc="http://creativecommons.org/ns#"
   xmlns:rdf="http://www.w3.org/1999/02/22-rdf-syntax-ns#"
   xmlns:svg="http://www.w3.org/2000/svg"
   xmlns="http://www.w3.org/2000/svg"
   xmlns:sodipodi="http://sodipodi.sourceforge.net/DTD/sodipodi-0.dtd"
   xmlns:inkscape="http://www.inkscape.org/namespaces/inkscape"
   version="1.1"
   id="Layer_1"
   x="0px"
   y="0px"
   width="511"
   height="511"
   viewBox="0 0 510.99998 511"
   xml:space="preserve"
   inkscape:version="0.48.4 r9939"
   sodipodi:docname="save.svg"><metadata
     id="metadata73"><rdf:RDF><cc:Work
         rdf:about=""><dc:format>image/svg+xml</dc:format><dc:type
           rdf:resource="http://purl.org/dc/dcmitype/StillImage" /></cc:Work></rdf:RDF></metadata><defs
     id="defs71" /><sodipodi:namedview
     pagecolor="#ffffff"
     bordercolor="#666666"
     borderopacity="1"
     objecttolerance="10"
     gridtolerance="10"
     guidetolerance="10"
     inkscape:pageopacity="0"
     inkscape:pageshadow="2"
     inkscape:window-width="1855"
     inkscape:window-height="1056"
     id="namedview69"
     showgrid="false"
     inkscape:zoom="0.24459283"
     inkscape:cx="588.73352"
     inkscape:cy="255.5"
     inkscape:window-x="65"
     inkscape:window-y="24"
     inkscape:window-maximized="1"
     inkscape:current-layer="Layer_1" /><path
     style="fill:#e24c3f"
     d="M 511.193,431.001 C 511.193,475.184 475.183,511 431,511 H 80 C 35.817,511 0.193,475.184 0.193,431.001 v -327 L 104,0 h 327 c 44.183,0 80.193,35.819 80.193,80.001 v 351 z"
     id="path3"
     inkscape:connector-curvature="0" /><path
     style="fill:#ff7063"
     d="M 0,104 H 69.334 C 88.4,104 104.193,88.667 104.193,69.601 V 0.001 L 0,104 z"
     id="path5"
     inkscape:connector-curvature="0" /><polygon
     style="opacity:0.2;fill:#5d5d5d"
     points="0.193,159.735 0.193,104 55.467,104 "
     id="polygon7" /><path
     style="fill:#3b5169"
     d="m 376.104,114 h -16.91 v 120 h -206 V 114 h -46.088 c -9.818,0 -16.912,7.953 -16.912,17.772 v 296.375 c 0,9.819 7.094,17.853 16.912,17.853 H 403.48 c 9.82,0 18.713,-8.033 18.713,-17.853 V 159.149 L 376.104,114 z"
     id="path9"
     inkscape:connector-curvature="0" /><path
     style="fill:#2d3e50"
     d="M 359.193,446 V 302.277 c 0,-4.909 -5.258,-9.277 -10.168,-9.277 H 161.561 c -4.91,0 -8.367,4.368 -8.367,9.277 V 446 h 205.999 z"
     id="path11"
     inkscape:connector-curvature="0" /><path
     style="fill:#2d3e50"
     d="M 353.49,125 H 156.873 l -3.68,-11.081 v 10.713 71.415 25.888 19.64 c 0,4.91 3.457,9.426 8.367,9.426 h 187.465 c 4.91,0 10.168,-4.516 10.168,-9.426 v -19.64 -25.888 -71.415 -10.713 L 353.49,125 z"
     id="path13"
     inkscape:connector-curvature="0" /><path
     style="fill:#c7c7c7"
     d="m 211.193,120 v 68.013 8.927 35.708 c 0,4.911 2.59,9.353 7.5,9.353 H 340.1 c 4.91,0 10.094,-4.442 10.094,-9.353 V 196.94 188.013 120 H 211.193 z m 130,93.709 c 0,5.132 -4.354,9.291 -9.484,9.291 h -24.418 c -5.131,0 -9.098,-4.159 -9.098,-9.291 v -68.416 c 0,-5.132 3.967,-9.293 9.098,-9.293 h 24.418 c 5.131,0 9.484,4.161 9.484,9.293 v 68.416 z"
     id="path15"
     inkscape:connector-curvature="0" /><path
     style="fill:#212d3b"
     d="m 341.193,145.292 c 0,-5.132 -4.16,-9.292 -9.291,-9.292 h -24.418 c -5.131,0 -9.291,4.16 -9.291,9.292 v 68.416 c 0,5.132 4.16,9.292 9.291,9.292 h 24.418 c 5.131,0 9.291,-4.16 9.291,-9.292 v -68.416 z m -5,69.88 c 0,2.667 -2.162,4.828 -4.828,4.828 h -24.344 c -2.666,0 -4.828,-2.162 -4.828,-4.828 v -69.344 c 0,-2.667 2.162,-4.828 4.828,-4.828 h 24.344 c 2.666,0 4.828,2.162 4.828,4.828 v 69.344 z"
     id="path17"
     inkscape:connector-curvature="0" /><path
     style="fill:#f3c40f"
     d="m 350.193,306.741 c 0,-2.455 -3.176,-4.741 -5.631,-4.741 H 166.023 c -2.455,0 -3.83,2.286 -3.83,4.741 V 347 h 188 v -40.259 z"
     id="path19"
     inkscape:connector-curvature="0" /><path
     style="fill:#e6e6e6"
     d="m 162.193,347 v 85.611 c 0,2.454 1.375,4.389 3.83,4.389 h 178.539 c 2.455,0 5.631,-1.935 5.631,-4.389 V 347 h -188 z"
     id="path21"
     inkscape:connector-curvature="0" /><rect
     x="183.19299"
     y="380"
     style="fill:#b0b0b0"
     width="146"
     height="5"
     id="rect23" /><rect
     x="183.19299"
     y="406"
     style="fill:#b0b0b0"
     width="146"
     height="6"
     id="rect25" /><path
     style="fill:#2d3e50"
     d="m 141.193,413.288 c 0,5.916 -4.796,10.712 -10.711,10.712 h -16.578 c -5.915,0 -10.711,-4.796 -10.711,-10.712 v -16.576 c 0,-5.916 4.796,-10.712 10.711,-10.712 h 16.578 c 5.915,0 10.711,4.796 10.711,10.712 v 16.576 z"
     id="path27"
     inkscape:connector-curvature="0" /><path
     style="fill:#2d3e50"
     d="m 409.193,413.288 c 0,5.916 -4.795,10.712 -10.711,10.712 h -16.578 c -5.916,0 -10.711,-4.796 -10.711,-10.712 v -16.576 c 0,-5.916 4.795,-10.712 10.711,-10.712 h 16.578 c 5.916,0 10.711,4.796 10.711,10.712 v 16.576 z"
     id="path29"
     inkscape:connector-curvature="0" /><path
     style="opacity:0.2;fill:#5d5d5d"
     d="M 350.193,232.647 V 196.939 188.012 120 H 209.766 l 130.917,121.491 c 4.91,0 9.51,-3.933 9.51,-8.844 z"
     id="path31"
     inkscape:connector-curvature="0" /><path
     style="opacity:0.2;fill:#5d5d5d"
     d="m 376.104,114 h -16.91 v 10.632 71.415 25.888 12.498 7.142 c 0,4.91 -5.258,9.426 -10.168,9.426 H 217.721 l 201.292,186.855 c 1.73,-2.75 3.181,-6.237 3.181,-9.708 V 159.149 L 376.104,114 z"
     id="path33"
     inkscape:connector-curvature="0" /><path
     style="opacity:0.2;fill:#5d5d5d"
     d="m 153.193,114 h -46.088 c -9.516,0 -17.052,7.51 -17.528,16.915 l 63.616,58.957 V 124.632 114 z"
     id="path35"
     inkscape:connector-curvature="0" /><polygon
     style="opacity:0.2;fill:#5d5d5d"
     points="1122.193,159.734 1122.193,104 1177.467,104 "
     id="polygon37" /><g
     id="g39" /><g
     id="g41" /><g
     id="g43" /><g
     id="g45" /><g
     id="g47" /><g
     id="g49" /><g
     id="g51" /><g
     id="g53" /><g
     id="g55" /><g
     id="g57" /><g
     id="g59" /><g
     id="g61" /><g
     id="g63" /><g
     id="g65" /><g
     id="g67" /></svg>